<svg width="24" height="24" viewBox="0 0 24 24" fill="none" xmlns="http://www.w3.org/2000/svg">
<path d="M2.25 12.8141V6.97706C2.25159 6.71669 2.3564 6.4676 2.54144 6.28443C2.72649 6.10126 2.97664 5.99899 3.237 6.00005H11.625C11.7778 6.00005 11.9286 6.03544 12.0655 6.10345C12.2024 6.17146 12.3217 6.27024 12.414 6.39206L13.6 8.24805H20.014C20.2745 8.24726 20.5247 8.34992 20.7096 8.53349C20.8945 8.71706 20.9989 8.96652 21 9.22706V12.8141M9.065 15.7481H14.935M19.737 5.24805V3.97806C19.7357 3.71752 19.631 3.46817 19.4459 3.28478C19.2608 3.1014 19.0105 2.99899 18.75 3.00006H13.6L12.414 1.14006C12.3217 1.01824 12.2024 0.91946 12.0655 0.851451C11.9286 0.783442 11.7778 0.748053 11.625 0.748055H4.5C4.37083 0.747529 4.24282 0.772467 4.12329 0.821444C4.00376 0.870421 3.89505 0.942477 3.80339 1.03349C3.71172 1.12451 3.6389 1.2327 3.58907 1.35187C3.53924 1.47105 3.51339 1.59888 3.513 1.72806V2.77006M1.728 12.8141H22.272C22.272 12.8141 23.25 12.8141 23.25 13.7921V22.2711C23.25 22.2711 23.25 23.2491 22.272 23.2491H1.728C1.728 23.2491 0.75 23.2491 0.75 22.2711V13.7921C0.75 13.7921 0.75 12.8141 1.728 12.8141Z" stroke="black" stroke-width="2" stroke-linecap="round" stroke-linejoin="round"/>
</svg>
