<svg width="24" height="24" viewBox="0 0 24 24" fill="none" xmlns="http://www.w3.org/2000/svg">
<g clip-path="url(#clip0_6_40886)">
<path fill-rule="evenodd" clip-rule="evenodd" d="M2.5 7.22901V13.066H21.25V9.47901C21.2489 9.21847 21.1445 8.96902 20.9596 8.78545C20.7747 8.60188 20.5245 8.49921 20.264 8.50001H13.85L12.664 6.64401C12.5717 6.52219 12.4524 6.42341 12.3155 6.3554C12.1786 6.2874 12.0278 6.25201 11.875 6.25201H3.487C3.22664 6.25094 2.97649 6.35322 2.79144 6.53638C2.6064 6.71955 2.50159 6.96865 2.5 7.22901Z" fill="white"/>
<path d="M2.5 13.066H1.978C1 13.066 1 14.044 1 14.044V22.523C1 23.501 1.978 23.501 1.978 23.501H22.522C23.5 23.501 23.5 22.523 23.5 22.523V14.044C23.5 13.066 22.522 13.066 22.522 13.066H21.25H2.5Z" fill="#74BF44"/>
<path d="M1.978 13.066H22.522M1.978 13.066C1 13.066 1 14.044 1 14.044V22.523C1 23.501 1.978 23.501 1.978 23.501H22.522C23.5 23.501 23.5 22.523 23.5 22.523V14.044C23.5 13.066 22.522 13.066 22.522 13.066M1.978 13.066H2.5M22.522 13.066H21.25M2.5 13.066V7.22901C2.50159 6.96865 2.6064 6.71955 2.79144 6.53638C2.97649 6.35322 3.22664 6.25094 3.487 6.25201H11.875C12.0278 6.25201 12.1786 6.2874 12.3155 6.3554C12.4524 6.42341 12.5717 6.52219 12.664 6.64401L13.85 8.50001H20.264C20.5245 8.49921 20.7747 8.60188 20.9596 8.78545C21.1445 8.96902 21.2489 9.21847 21.25 9.47901V13.066M2.5 13.066H21.25M9.315 16C10.4612 16 11.1038 16 12.25 16C13.3962 16 14.0388 16 15.185 16M19.987 5.50001V4.23001C19.9857 3.96947 19.881 3.72012 19.6959 3.53674C19.5108 3.35336 19.2605 3.25094 19 3.25201H13.85L12.664 1.39201C12.5717 1.27019 12.4524 1.17141 12.3155 1.1034C12.1786 1.0354 12.0278 1.00001 11.875 1.00001H4.75C4.62083 0.999482 4.49282 1.02442 4.37329 1.0734C4.25376 1.12237 4.14505 1.19443 4.05339 1.28544C3.96172 1.37646 3.8889 1.48465 3.83907 1.60383C3.78924 1.723 3.76339 1.85083 3.763 1.98001V3.02201" stroke="#74BF44" stroke-width="2" stroke-linecap="round" stroke-linejoin="round"/>
<path d="M9.61621 15.8379H15.4006" stroke="white" stroke-width="2" stroke-linecap="round"/>
</g>
<defs>
<clipPath id="clip0_6_40886">
<rect width="24" height="24" fill="white"/>
</clipPath>
</defs>
</svg>
